PathFileType	4	(X/Y/Z)	Patient4_TMGait_0pt5_02_right_24.trc.trc
DataRate	CameraRate	NumFrames	NumMarkers	Units	OrigDataRate	OrigDataStartFrame	OrigNumFrames
74.468085106383	74.468085106383	4	33	mm	74.468085106383	124	       141
Frame#	Time	Sacral			L.Shoulder			Chest			R.Shoulder			Neck			R.ASIS			L.ASIS			R.Thigh.Superior			R.Thigh.Lateral			R.Thigh.Inferior			R.Patella			L.Thigh.Superior			L.Thigh.Lateral			L.Thigh.Inferior			L.Patella			L.Shank.Superior			L.Shank.Lateral			L.Shank.Inferior			R.Shank.Superior			R.Shank.Lateral			R.Shank.Inferior			R.Heel			R.Midfoot.Superior			R.Midfoot.Lateral			R.Toe			L.Heel			L.Midfoot.Lateral			L.Midfoot.Superior			L.Toe			L.Elbow			L.Wrist			R.Elbow			R.Wrist			
		X1	Y1	Z1	X2	Y2	Z2	X3	Y3	Z3	X4	Y4	Z4	X5	Y5	Z5	X6	Y6	Z6	X7	Y7	Z7	X8	Y8	Z8	X9	Y9	Z9	X10	Y10	Z10	X11	Y11	Z11	X12	Y12	Z12	X13	Y13	Z13	X14	Y14	Z14	X15	Y15	Z15	X16	Y16	Z16	X17	Y17	Z17	X18	Y18	Z18	X19	Y19	Z19	X20	Y20	Z20	X21	Y21	Z21	X22	Y22	Z22	X23	Y23	Z23	X24	Y24	Z24	X25	Y25	Z25	X26	Y26	Z26	X27	Y27	Z27	X28	Y28	Z28	X29	Y29	Z29	X30	Y30	Z30	X31	Y31	Z31	X32	Y32	Z32	X33	Y33	Z33	

124	32.891714285714	561.267395786611	993.300496100716	446.852031928158	737.437962429065	1411.886264303668	251.801223512966	823.889435069762	1359.656429900665	428.165632531676	718.666296570867	1444.178547645997	586.409395591403	718.786290237006	1484.183736883503	396.452540431218	781.054407684206	936.415165615230	579.589172527506	786.474459552056	951.853748639764	303.561468050752	853.977124516096	754.083950014000	558.262501849777	794.470085442372	632.435503281453	621.248232894059	886.450092594961	593.599419026486	546.970174160288	911.315686948013	509.454270355325	558.597946503510	784.343766544945	726.312519261966	332.535474901482	665.374271079996	632.722830667044	272.100695094331	723.690704075688	539.309373838366	336.607382483174	705.914182783125	470.527978204459	347.424808963317	670.444507497765	405.558951807622	339.979197259741	563.221075088409	304.677967355886	292.052056980580	599.485516454619	188.354032747455	365.121457929736	895.261774542627	419.864073562748	566.749888649915	837.537557919545	306.843031869216	625.360217394797	905.520567180907	220.397002140213	574.423037362768	804.823134142129	43.705567693207	540.794650925003	970.563735637972	105.449984914417	584.948971380205	886.044743056553	37.834890053703	618.247428194200	1091.479655296694	59.488163801845	616.556861350943	456.937531204363	39.519475491188	413.010460277395	530.107320983829	34.704054018263	332.093417346049	614.477846914025	95.029155053260	356.722518914157	741.955590400508	41.230176865320	328.549347839746	784.133028249619	1061.297075896147	136.268777994239	1016.618144100634	946.047529986292	158.456588197628	577.769123523647	1141.238960702012	715.962339187621	571.681711787956	881.693181907421	750.625221754925	
125	32.905142857143	562.743071652607	992.632114388882	449.616807655611	736.654376372169	1411.918150631399	255.292261757026	824.454675956918	1359.388666948068	430.921157104522	719.844439975667	1442.798337379706	590.171006865906	718.772164339483	1483.683712921312	400.363963470878	783.431972225744	935.148235476553	580.965646018281	787.220667799231	950.984416003030	305.121143795842	855.497947610668	751.970774425669	558.046228577475	794.942703091669	631.198816927997	620.921451237705	885.779772130136	591.942532773696	545.572348509514	909.201845582311	507.163267035849	556.719807640854	784.895011315260	725.108842390998	333.670191709026	665.322057046133	631.837424401489	273.829999345797	723.649600109891	538.029800907979	338.004704238066	705.698253928880	468.660428829978	348.664739304890	668.838394750734	404.168983336729	341.234513569805	559.905577302785	305.076857848311	293.264017150423	594.474943809423	187.925739619485	365.727901430601	892.547145308542	417.198884078295	565.561094639100	833.913014529013	304.822380350459	624.616855468675	900.160233333940	217.583072534528	572.815190653579	796.391672396371	42.546761988461	540.000925053283	962.992212082778	102.879749013580	583.187377596850	877.681841925866	36.744452269410	617.447362567585	1083.597822419760	55.839231315712	614.782450934660	450.191827652445	40.163334738990	413.007663160263	523.431039949407	34.949753885394	332.209459846686	608.014169694928	95.060570557259	356.833598872476	735.330333790130	40.866163147359	328.531116149497	779.567576227689	1060.530079349963	139.399136278981	1008.667023481678	937.972459667707	160.540544621319	583.229226749647	1137.333994101388	719.535159205266	583.416468101366	877.240609630730	752.177077178419	
126	32.918571428571	564.168715920126	992.295171427147	452.358283416107	736.036763711000	1412.347521700841	258.961595088939	825.151873862517	1359.376404178768	433.809042366569	721.222972532559	1441.648768011164	594.094364603514	718.992406078357	1483.523837966494	404.478820199607	785.736455031444	934.286849928652	582.387400414967	787.907541214377	950.395822972136	306.757762497926	857.004811391653	750.370161927413	557.785057660424	795.658788720158	630.517616902555	620.763690313892	885.235179574520	590.808460911781	544.258773768526	907.222386470004	505.353805119944	555.106183845601	785.727420245211	724.212727625444	334.961148929462	665.772967784127	631.018473499679	275.686611676217	724.349328435562	536.881210706116	339.509912343067	706.365752728865	466.786063273143	349.850917978874	667.866245179654	402.834920128980	342.502484901250	557.040496455004	305.778412944758	294.552629970918	589.760244018883	187.710060487205	366.299363090032	890.004255192439	415.112367136421	564.633717442412	830.608563418202	303.374893752636	624.266445632606	895.077801669485	215.377133787882	571.548210475526	788.410854406333	41.742171821887	539.522985352564	955.688389537525	100.990954162808	581.826428454399	869.771852539654	36.068609963274	616.951756166837	1076.065385010043	53.180439544114	613.416790860569	443.499834484519	41.314347552431	412.986313315265	516.802969673740	35.409019494500	332.333059995352	601.749692319140	95.157830563473	356.868014188488	728.741837649670	40.436807540098	328.507354104385	774.764700676121	1060.148608488326	142.725979278126	999.557857870884	929.242658523139	162.447885473102	589.324646901539	1133.473072003337	723.218830438246	596.123129980880	872.995850797722	753.836220267408	
127	32.932000000000	565.520891618465	992.314419516122	455.068867047393	735.611403717246	1413.218254420899	262.769996493308	825.955048589087	1359.649731597617	436.808384991155	722.759632286277	1440.781313066107	598.132902682299	719.431726700522	1483.732989584312	408.751871971364	787.918467248703	933.889705742187	583.877921265776	788.509590551197	950.153992690831	308.466519150871	858.453311531516	749.333128286772	557.590393574307	796.556277523742	630.370678862201	620.838062491419	884.807618151285	590.170124177065	543.179655844341	905.372627774851	504.029850111432	553.881434018637	786.854831897960	723.692608343239	336.399950678263	666.800791935816	630.296622468483	277.630323420808	725.919354746153	535.909610075535	341.058870181488	708.057552353077	464.945775858175	350.882856853009	667.651542523430	401.597093269330	343.706034551814	554.735584641781	306.858986192658	295.866176982766	585.426694183958	187.783303689455	366.779672094332	887.611700017893	413.602965519034	564.018583947683	827.584787775296	302.492314415153	624.318369556397	890.256863562381	213.778700940041	570.653008503131	780.926660131121	41.266219335444	539.322649446104	948.697856751607	99.747446548816	580.886874967205	862.349259084110	35.738663507456	616.726397179857	1068.915233243953	51.446693762243	612.476304625998	436.914486144081	43.141221967503	412.934192429578	510.249511931134	36.171623414501	332.451708699341	595.752231375659	95.347692807969	356.787685757300	722.185524490443	39.953780155356	328.482132417534	769.772192326655	1060.221194758248	146.266813421602	989.204927378532	919.998137241532	164.198702147840	596.009398418882	1129.745818641760	726.968870121085	609.772260561782	869.104330540462	755.601926011625	
